<svg xmlns="http://www.w3.org/2000/svg" xmlns:xlink="http://www.w3.org/1999/xlink" xmlns:serif="http://www.serif.com/" viewBox="0 0 48 60" version="1.1" xml:space="preserve" style="" x="0px" y="0px" fill-rule="evenodd" clip-rule="evenodd" stroke-linejoin="round" stroke-miterlimit="2"><g transform="matrix(1,0,0,1,-326,-140)"><g transform="matrix(1.36136,0,0,1.29358,-126.377,-41.0004)"><path d="M364.735,158.546C364.735,157.931 364.502,157.341 364.089,156.906C363.676,156.471 363.115,156.227 362.531,156.227C362.531,156.227 346.229,156.227 346.229,156.227C346.033,156.227 345.845,156.145 345.707,155.999C345.57,155.853 345.493,155.655 345.494,155.449L345.517,151.561C345.521,150.943 345.291,150.35 344.877,149.911C344.463,149.473 343.901,149.227 343.314,149.227L337.469,149.227C336.252,149.227 335.265,150.265 335.265,151.546L335.265,172.376C335.265,173.657 336.252,174.695 337.469,174.695C342.305,174.695 357.695,174.695 362.531,174.695C363.115,174.695 363.676,174.451 364.089,174.016C364.502,173.581 364.735,172.991 364.735,172.376L364.735,158.546ZM363.265,158.546L363.265,172.376C363.265,172.581 363.188,172.778 363.05,172.923C362.913,173.068 362.726,173.149 362.531,173.149C357.695,173.149 342.305,173.149 337.469,173.149C337.063,173.149 336.735,172.803 336.735,172.376C336.735,172.376 336.735,151.546 336.735,151.546C336.735,151.119 337.063,150.773 337.469,150.773C337.469,150.773 343.314,150.773 343.314,150.773C343.509,150.773 343.697,150.855 343.835,151.001C343.973,151.147 344.05,151.345 344.048,151.551L344.025,155.439C344.021,156.057 344.252,156.65 344.665,157.089C345.079,157.527 345.642,157.773 346.228,157.773L362.531,157.773C362.726,157.773 362.913,157.854 363.05,157.999C363.188,158.144 363.265,158.341 363.265,158.546Z"/></g><g transform="matrix(1.12112,0,0,1.13188,-41.7041,-19.0096)"><path d="M336,156.883L340,156.883C340.492,156.883 340.892,156.488 340.892,156C340.892,155.512 340.492,155.117 340,155.117L336,155.117C335.508,155.117 335.108,155.512 335.108,156C335.108,156.488 335.508,156.883 336,156.883Z"/></g><path d="M332.282,152.132C330.992,152.468 330.04,153.641 330.04,155.036L330.04,181.981C330.04,183.638 331.383,184.981 333.04,184.981C339.623,184.981 360.574,184.981 367.158,184.981C367.953,184.981 368.716,184.665 369.279,184.102C369.842,183.54 370.158,182.777 370.158,181.981L370.158,164.091C370.158,163.295 369.842,162.532 369.279,161.97C369.202,161.892 369.121,161.82 369.036,161.752L369.036,152.772C369.036,151.977 368.72,151.213 368.158,150.651C367.595,150.088 366.832,149.772 366.036,149.772L363.747,149.772L363.747,145.981C363.747,145.185 363.431,144.422 362.868,143.86C362.306,143.297 361.543,142.981 360.747,142.981C355.372,142.981 340.657,142.981 335.282,142.981C334.486,142.981 333.723,143.297 333.16,143.86C332.598,144.422 332.282,145.185 332.282,145.981L332.282,152.132ZM344.964,163.091L367.158,163.091C367.423,163.091 367.677,163.196 367.865,163.384C368.052,163.571 368.158,163.826 368.158,164.091L368.158,181.981C368.158,182.246 368.052,182.5 367.865,182.688C367.677,182.876 367.423,182.981 367.158,182.981C360.574,182.981 339.623,182.981 333.04,182.981C332.487,182.981 332.04,182.533 332.04,181.981C332.04,181.981 332.04,155.036 332.04,155.036C332.04,154.484 332.487,154.036 333.04,154.036C333.04,154.036 340.996,154.036 340.996,154.036C341.263,154.036 341.518,154.142 341.706,154.331C341.893,154.52 341.998,154.776 341.996,155.042L341.964,160.072C341.959,160.871 342.273,161.639 342.836,162.206C343.399,162.772 344.165,163.091 344.964,163.091ZM363.747,151.772L363.747,161.091L367.036,161.091L367.036,152.772C367.036,152.507 366.931,152.253 366.744,152.065C366.556,151.878 366.302,151.772 366.036,151.772L363.747,151.772ZM343.987,156.563L343.974,158.563L356.825,158.563C357.377,158.563 357.825,158.115 357.825,157.563C357.825,157.012 357.377,156.563 356.825,156.563L343.987,156.563ZM341.08,152.037C341.849,152.059 342.581,152.375 343.124,152.921C343.44,153.24 343.678,153.621 343.825,154.036L356.825,154.036C357.377,154.036 357.825,153.588 357.825,153.036C357.825,152.484 357.377,152.036 356.825,152.036L341.13,152.036C341.113,152.036 341.097,152.036 341.08,152.037ZM338.858,149.508L356.825,149.508C357.377,149.508 357.825,149.06 357.825,148.508C357.825,147.957 357.377,147.508 356.825,147.508L338.858,147.508C338.306,147.508 337.858,147.957 337.858,148.508C337.858,149.06 338.306,149.508 338.858,149.508Z"/></g><text x="0" y="63" fill="#000000" font-size="5px" font-weight="bold" font-family="'Helvetica Neue', Helvetica, Arial-Unicode, Arial, Sans-serif">Created by Arif Subekti</text><text x="0" y="68" fill="#000000" font-size="5px" font-weight="bold" font-family="'Helvetica Neue', Helvetica, Arial-Unicode, Arial, Sans-serif">from the Noun Project</text></svg>